<?xml version="1.0" encoding="UTF-8" standalone="no"?>
<!-- Created with Inkscape (http://www.inkscape.org/) -->
<svg xmlns="http://www.w3.org/2000/svg" xmlns:svg="http://www.w3.org/2000/svg" version="1.1" id="svg2" width="170" height="68.548286" viewBox="0 0 170.00001 68.548287">
  <defs id="defs6"></defs>
  <g id="g10" transform="matrix(1.3333333,0,0,-1.3333333,-92.597731,585.82679)">
    <g id="g161" transform="matrix(0.18136733,0,0,0.18136733,56.852647,359.68272)">
      <path d="M 101.5917,407.2266 V 241.4517 l 112.2384,-67.1474 7.4302,4.3019 104.6117,60.8111 4.3019,2.5036 V 407.2266 Z M 266.8771,240.0744 H 152.5995 v 3.6918 h 15.1596 v 122.0519 h -15.1596 v 3.8863 h 108.8356 l 0.5828,-36.9258 h -3.6932 c -0.2608,10.2328 -3.3707,18.2682 -9.3283,24.099 -5.961,5.8298 -13.9297,8.7455 -23.9054,8.7455 l -28.7632,0.195 v -55.5834 c 11.6621,-0.1313 20.3091,0.9368 25.9467,3.2054 5.635,2.266 8.454,9.8152 8.454,22.642 l 3.8866,0.195 V 277.778 h -3.4988 c 0,8.2896 -2.1708,15.0922 -6.5106,20.4066 -4.3421,5.3116 -10.9808,7.9676 -19.9205,7.9676 h -8.3574 v -62.386 h 27.5984 c 11.918,-0.1307 21.475,2.3956 28.666,7.5793 7.1912,5.1823 10.7861,14.2534 10.7861,27.2086 v 0.779 0.7761 c 0,0.2591 -0.0329,0.5182 -0.0973,0.779 -0.066,0.2576 -0.0966,0.5147 -0.0966,0.7755 l 3.6927,0.1962 z" style="fill:#0d4275;fill-opacity:1;fill-rule:nonzero;stroke:none" id="path12"></path>
      <path d="M 259.9855,439.3701 V 424.37 H 84.4483 V 231.7941 l 112.4975,-67.3027 -14.773,-8.5859 -112.7245,67.4382 v 216.0264 z" style="fill:#0d4275;fill-opacity:1;fill-rule:nonzero;stroke:none" id="path14"></path>
      <path d="m 743.9281,250.5909 v 27.453 l 28.5134,-29.8687 v 41.7098 h -6.0092 v -27.2174 l -28.5134,29.8687 v -41.9454 z" style="fill:#0d4275;fill-opacity:1;fill-rule:nonzero;stroke:none" id="path16"></path>
      <path d="m 698.1531,290.5923 c -2.9554,-0.0199 -5.6849,-0.5403 -8.1692,-1.5613 -2.4743,-1.0211 -4.6343,-2.4548 -6.4706,-4.3008 -1.8363,-1.8456 -3.2496,-3.9962 -4.2613,-6.4607 -1.0114,-2.4741 -1.522,-5.1545 -1.5415,-8.0612 0.0195,-2.906 0.5301,-5.5865 1.5415,-8.0509 1.0117,-2.4747 2.425,-4.6247 4.2613,-6.4709 1.8363,-1.846 3.9963,-3.2792 6.4706,-4.3002 2.4843,-1.0216 5.2138,-1.542 8.1692,-1.5613 2.9653,0.0193 5.6852,0.5397 8.1692,1.5613 2.484,1.021 4.6346,2.4542 6.4706,4.3002 1.836,1.8462 3.2596,3.9962 4.271,6.4709 1.0015,2.4644 1.5219,5.1449 1.5315,8.0509 -0.01,2.9067 -0.53,5.5871 -1.5315,8.0612 -1.0114,2.4645 -2.435,4.6151 -4.271,6.4607 -1.836,1.846 -3.9866,3.2797 -6.4706,4.3008 -2.484,1.021 -5.2039,1.5414 -8.1692,1.5613 z m 0,-35.2298 c -2.1112,0.01 -4.0552,0.3733 -5.8127,1.0899 -1.7575,0.7268 -3.2794,1.7478 -4.5658,3.0637 -1.2861,1.3155 -2.2779,2.8865 -2.9846,4.693 -0.7072,1.8068 -1.0607,3.8098 -1.0703,5.9992 0.01,2.1895 0.3631,4.1925 1.0703,5.9993 0.7067,1.8068 1.6985,3.3775 2.9846,4.6933 1.2864,1.3258 2.8083,2.3369 4.5658,3.0634 1.7575,0.7169 3.7015,1.08 5.8127,1.0899 2.1209,-0.01 4.0552,-0.373 5.8127,-1.0899 1.7575,-0.7265 3.2791,-1.7376 4.5655,-3.0634 1.2864,-1.3158 2.2779,-2.8865 2.9849,-4.6933 0.7069,-1.8068 1.0607,-3.8098 1.0704,-5.9993 -0.01,-2.1894 -0.3635,-4.1924 -1.0704,-5.9992 -0.707,-1.8065 -1.6985,-3.3775 -2.9849,-4.693 -1.2864,-1.3159 -2.808,-2.3369 -4.5655,-3.0637 -1.7575,-0.7166 -3.6918,-1.08 -5.8127,-1.0899" style="fill:#0d4275;fill-opacity:1;fill-rule:nonzero;stroke:none" id="path18"></path>
      <path d="m 652.3781,289.885 v -39.2941 h 6.0089 v 39.2941 z" style="fill:#0d4275;fill-opacity:1;fill-rule:nonzero;stroke:none" id="path20"></path>
      <path d="m 635.2934,284.2296 v 5.6554 H 611.257 v -5.6554 h 9.0136 v -33.6387 h 6.0089 v 33.6387 z" style="fill:#0d4275;fill-opacity:1;fill-rule:nonzero;stroke:none" id="path22"></path>
      <path d="m 594.5261,250.5909 h 6.4803 l -18.6163,41.5919 -19.559,-41.5919 h 6.4806 l 4.3004,9.4844 h 16.7899 z m -18.4396,15.1404 6.0678,13.3141 5.8326,-13.3141 z" style="fill:#0d4275;fill-opacity:1;fill-rule:nonzero;stroke:none" id="path24"></path>
      <path d="m 548.6927,287.7642 c -1.1392,0.7265 -2.2878,1.2863 -3.4367,1.6988 -1.1585,0.422 -2.3173,0.7069 -3.4954,0.8838 -1.1684,0.1667 -2.3567,0.2551 -3.5544,0.2455 -1.8065,0.01 -3.5345,-0.1474 -5.1842,-0.4813 -1.6498,-0.3238 -3.2304,-0.864 -4.7328,-1.6101 -1.5021,-0.7563 -2.9259,-1.7677 -4.2809,-3.0342 -0.8345,-0.7756 -1.6202,-1.679 -2.376,-2.7003 -0.7562,-1.021 -1.4238,-2.1696 -2.0128,-3.4364 -0.5894,-1.2765 -1.0508,-2.6808 -1.3944,-4.222 -0.3436,-1.5318 -0.5108,-3.2108 -0.5204,-5.0176 -0.01,-1.8456 0.1964,-3.6326 0.6188,-5.3509 0.4118,-1.7283 1.08,-3.3778 2.0126,-4.9683 0.9232,-1.5806 2.1503,-3.0929 3.6722,-4.5264 0.5692,-0.5595 1.2861,-1.1486 2.1405,-1.7674 0.8543,-0.6188 1.8558,-1.2078 2.9948,-1.7577 1.1486,-0.55 2.4542,-1.0015 3.9078,-1.355 1.4627,-0.3436 3.083,-0.5301 4.8603,-0.5397 0.9131,-0.01 1.9539,0.0686 3.1224,0.2353 1.1684,0.1768 2.4055,0.4716 3.7114,0.9036 1.3056,0.4224 2.6215,1.0307 3.9472,1.8063 v 7.1285 c -0.5598,-0.54 -1.2078,-1.0703 -1.9343,-1.6004 -0.7365,-0.5301 -1.5514,-1.021 -2.4449,-1.463 -0.8839,-0.4419 -1.8556,-0.7954 -2.8965,-1.0604 -1.0408,-0.2653 -2.1503,-0.4025 -3.3284,-0.4124 -2.1013,0.01 -4.026,0.3928 -5.7736,1.129 -1.7479,0.7466 -3.2695,1.7872 -4.5559,3.1226 -1.2767,1.3352 -2.2682,2.8868 -2.9752,4.6735 -0.707,1.7771 -1.0602,3.7114 -1.0701,5.8028 0.01,2.1799 0.3535,4.1732 1.031,5.9899 0.6871,1.8261 1.6594,3.3971 2.9259,4.7421 1.2569,1.3357 2.7689,2.3763 4.5167,3.1127 1.7479,0.7362 3.7015,1.1092 5.842,1.1191 0.5595,0.01 1.2274,-0.0292 1.9936,-0.1275 0.7752,-0.0885 1.6197,-0.2849 2.5426,-0.5695 0.923,-0.2945 1.9049,-0.7265 2.9359,-1.3156 1.0309,-0.5893 2.1013,-1.3648 3.1912,-2.3468 z" style="fill:#0d4275;fill-opacity:1;fill-rule:nonzero;stroke:none" id="path26"></path>
      <path d="m 469.2787,289.885 v -25.2731 c -0.0102,-1.0508 0.0785,-2.1504 0.2846,-3.2992 0.1964,-1.1486 0.5598,-2.3074 1.0899,-3.4759 0.5301,-1.1684 1.2864,-2.3074 2.2779,-3.4169 0.6875,-0.7659 1.5316,-1.4924 2.5529,-2.1897 1.0114,-0.6968 2.2096,-1.2663 3.5935,-1.7082 1.3845,-0.4515 2.9653,-0.6777 4.7526,-0.697 1.7869,0.0193 3.3678,0.2455 4.7523,0.697 1.3841,0.4419 2.582,1.0114 3.5934,1.7082 1.0214,0.6973 1.8655,1.4238 2.5529,2.1897 0.9916,1.1095 1.7479,2.2485 2.2879,3.4169 0.5303,1.1685 0.8934,2.3273 1.0899,3.4759 0.1961,1.1488 0.2849,2.2484 0.2749,3.2992 v 25.2731 h -6.0094 v -23.6826 c 0.0102,-0.7166 -0.01,-1.4629 -0.0587,-2.2385 -0.049,-0.7855 -0.1573,-1.5613 -0.3336,-2.3369 -0.1769,-0.7758 -0.4615,-1.5023 -0.8445,-2.1994 -0.3928,-0.6775 -0.9425,-1.3257 -1.6398,-1.9443 -0.707,-0.6185 -1.5318,-1.1194 -2.4843,-1.512 -0.9621,-0.3928 -2.0225,-0.5989 -3.181,-0.6088 -1.1588,0.01 -2.2193,0.216 -3.1813,0.6088 -0.9525,0.3926 -1.7771,0.8935 -2.4744,1.512 -0.707,0.6186 -1.2569,1.2668 -1.6495,1.9443 -0.3829,0.6971 -0.6678,1.4236 -0.8444,2.1994 -0.1766,0.7756 -0.2849,1.5514 -0.3339,2.3369 -0.0491,0.7756 -0.0686,1.5219 -0.0587,2.2385 v 23.6826 z" style="fill:#0d4275;fill-opacity:1;fill-rule:nonzero;stroke:none" id="path28"></path>
      <path d="m 419.5565,289.885 v -39.2941 h 8.13 c 1.8162,-0.0102 3.5343,0.0686 5.1449,0.2551 1.6101,0.1865 3.1714,0.5499 4.6834,1.0996 1.512,0.54 3.0243,1.3453 4.5462,2.4154 1.728,1.2274 3.181,2.6509 4.3495,4.2809 1.1684,1.6299 2.0523,3.4171 2.6509,5.3608 0.5993,1.9542 0.8938,4.0162 0.8938,6.2056 0,2.1895 -0.3041,4.2614 -0.8938,6.2153 -0.589,1.9542 -1.4527,3.7508 -2.5724,5.3807 -1.1191,1.6299 -2.4741,3.0439 -4.0748,4.2514 -1.453,1.0704 -2.9551,1.8757 -4.5065,2.435 -1.5511,0.5499 -3.1714,0.9229 -4.8507,1.1197 -1.6789,0.1961 -3.4268,0.2846 -5.2528,0.2746 z m 6.0091,-5.6554 h 2.592 c 0.972,0.01 2.052,-0.0391 3.2403,-0.1474 1.188,-0.1179 2.4058,-0.373 3.6525,-0.756 1.2472,-0.3928 2.4446,-0.9918 3.5937,-1.8065 0.9525,-0.6874 1.836,-1.5908 2.6311,-2.7003 0.7957,-1.0998 1.4437,-2.376 1.9248,-3.8293 0.481,-1.453 0.7364,-3.0435 0.746,-4.7818 -0.01,-1.7869 -0.2746,-3.397 -0.7851,-4.8308 -0.5109,-1.4235 -1.1688,-2.6708 -1.9835,-3.7309 -0.8053,-1.0704 -1.6693,-1.9443 -2.5922,-2.6317 -1.1489,-0.8342 -2.3369,-1.4434 -3.5643,-1.8456 -1.2274,-0.3929 -2.435,-0.648 -3.6133,-0.766 -1.1682,-0.1176 -2.2581,-0.1669 -3.25,-0.157 h -2.592 z" style="fill:#0d4275;fill-opacity:1;fill-rule:nonzero;stroke:none" id="path30"></path>
      <path d="m 399.9977,289.885 h -21.6799 v -39.2941 h 21.6799 v 5.6554 h -15.6708 v 12.3715 h 15.1994 v 5.6554 h -15.1994 v 9.9564 h 15.6708 z" style="fill:#0d4275;fill-opacity:1;fill-rule:nonzero;stroke:none" id="path32"></path>
      <path d="m 407.5021,366.6421 h -29.1843 v -51.3612 h 29.1843 v 11.3196 h -15.8626 v 8.8554 h 15.0156 v 11.3193 h -15.0156 v 8.5476 h 15.8626 z" style="fill:#0d4275;fill-opacity:1;fill-rule:nonzero;stroke:none" id="path34"></path>
      <path d="m 432.0584,366.6421 v -51.3612 h 29.3383 v 11.3196 h -16.0169 v 40.0416 z" style="fill:#0d4275;fill-opacity:1;fill-rule:nonzero;stroke:none" id="path36"></path>
      <path d="m 518.4048,315.2809 h 14.2455 l -19.3277,51.3612 H 498.7689 L 479.056,315.2809 h 14.0916 l 3.465,8.6241 h 18.635 z m -18.0961,18.7889 5.6214,16.6328 5.7753,-16.6328 z" style="fill:#0d4275;fill-opacity:1;fill-rule:nonzero;stroke:none" id="path38"></path>
      <path d="m 573.715,315.2809 c 2.105,0.0128 4.0428,0.2183 5.8008,0.6287 1.7711,0.4108 3.3242,0.9754 4.6976,1.694 1.3603,0.7319 2.5155,1.5659 3.4393,2.5285 0.6545,0.6418 1.2704,1.4372 1.8351,2.3871 0.565,0.9623 1.027,2.0789 1.3864,3.3627 0.3595,1.2705 0.5389,2.7204 0.5517,4.3376 -0.0128,2.0534 -0.334,3.8758 -0.9496,5.4802 -0.6288,1.5911 -1.463,2.9004 -2.5155,3.9141 -0.5392,0.5133 -1.1934,0.9884 -1.9381,1.4119 -0.7443,0.4235 -1.5528,0.783 -2.4128,1.0783 -0.8598,0.2821 -1.7453,0.4876 -2.6564,0.5902 0.9496,0.4107 1.7453,0.9371 2.3999,1.5659 0.6417,0.6414 1.2319,1.4502 1.758,2.4383 0.5392,1.0653 0.9113,2.105 1.1424,3.1312 0.2182,1.0142 0.3336,2.0795 0.3208,3.1833 -0.0255,2.2714 -0.3208,4.1964 -0.911,5.8008 -0.5905,1.5914 -1.3346,2.8619 -2.2459,3.8245 -1.0655,1.1424 -2.2334,2.0018 -3.4909,2.5795 -1.2705,0.5774 -2.567,0.9627 -3.8888,1.1549 -1.3346,0.1927 -2.6178,0.2823 -3.8631,0.2695 H 552.308 v -51.3612 z m -8.0853,41.12 h 2.4642 c 1.309,-0.0128 2.3743,-0.1543 3.2085,-0.4493 0.834,-0.2951 1.4499,-0.6546 1.8737,-1.0908 0.385,-0.4365 0.6931,-0.9499 0.9114,-1.5531 0.2052,-0.616 0.3206,-1.245 0.3206,-1.9123 0,-0.5901 -0.0899,-1.1934 -0.2951,-1.8093 -0.2055,-0.6163 -0.5134,-1.1424 -0.9369,-1.5786 -0.4751,-0.4751 -1.0139,-0.834 -1.6302,-1.0653 -0.6029,-0.231 -1.2189,-0.3849 -1.8221,-0.462 -0.6162,-0.0641 -1.1554,-0.1027 -1.6299,-0.0899 h -2.4642 z m 0,-19.944 h 2.7723 c 1.1166,0.013 2.1946,-0.0128 3.2471,-0.0772 1.0519,-0.064 2.0146,-0.2179 2.8746,-0.462 0.8598,-0.2438 1.5656,-0.6287 2.1175,-1.1548 0.398,-0.3853 0.7058,-0.8983 0.9499,-1.5273 0.2307,-0.6288 0.3594,-1.3607 0.3594,-2.1691 0,-0.7314 -0.1032,-1.3862 -0.3084,-1.9378 -0.1922,-0.5646 -0.449,-1.0267 -0.7699,-1.3731 -0.7574,-0.8342 -1.8482,-1.3864 -3.2853,-1.6815 -1.4378,-0.2823 -3.0802,-0.4235 -4.9541,-0.398 h -3.0031 z" style="fill:#0d4275;fill-opacity:1;fill-rule:nonzero;stroke:none" id="path40"></path>
    </g>
  </g>
</svg>
